<?xml version="1.0" encoding="UTF-8"?>
<svg id="Capa_1" data-name="Capa 1" xmlns="http://www.w3.org/2000/svg" viewBox="0 0 115.84 28.92">
  <defs>
    <style>
      .cls-1 {
        fill: #fff;
      }
    </style>
  </defs>
  <path class="cls-1" d="M23.67,8.38c.19,.05,.38,.09,.56,.17,.69,.34,1.06,1.04,1,1.75-.07,.78-.61,1.41-1.36,1.58-.59,.14-1.12,0-1.58-.4-.08-.07-.14-.09-.24-.03-1.22,.7-2.44,1.4-3.66,2.1-.06,.04-.09,.07-.08,.15,.05,.21,.05,.42,0,.63-.02,.08,.02,.11,.08,.15,.82,.47,1.64,.94,2.45,1.4,.42,.24,.83,.47,1.24,.71,.06,.04,.1,.03,.15-.02,.39-.36,.86-.52,1.39-.48,.76,.07,1.39,.63,1.56,1.38,.22,.97-.41,1.93-1.39,2.13-.97,.2-1.94-.48-2.09-1.45-.03-.23-.04-.45,.02-.67,.02-.07,0-.11-.06-.15-1.23-.7-2.45-1.4-3.68-2.11-.06-.04-.09-.03-.14,.02-.51,.49-1.11,.66-1.79,.45-.68-.21-1.1-.69-1.23-1.38-.18-.94,.45-1.86,1.39-2.05,.62-.12,1.17,.04,1.62,.49,.05,.05,.08,.06,.15,.03,1.22-.7,2.44-1.41,3.66-2.11,.08-.05,.09-.09,.07-.17-.22-.93,.38-1.88,1.32-2.1,.05-.01,.11,0,.16-.04h.46Zm-7.09,4.73c-.51,0-.93,.4-.92,.91,0,.52,.38,.91,.92,.92,.49,.01,.9-.41,.91-.91,0-.51-.4-.92-.9-.92Zm5.96,4.76c0,.52,.41,.93,.91,.92,.51,0,.91-.39,.91-.92,0-.54-.43-.92-.94-.91-.48,0-.89,.42-.89,.9Zm.9-6.8c.5,0,.92-.37,.93-.91,0-.53-.4-.91-.91-.92-.51,0-.92,.41-.91,.93,0,.48,.41,.89,.9,.89Z"/>
  <path class="cls-1" d="M32.49,14.72v2.08c0,.44-.21,.85-.62,1.22s-.84,.56-1.29,.56h-1.15c-.45,0-.88-.19-1.29-.57s-.62-.79-.62-1.22v-2.08c0-.43,.2-.83,.6-1.22s.83-.57,1.3-.57h1.15c.44,0,.87,.18,1.29,.55s.62,.79,.62,1.24Zm-3.97,.04v1.99c0,.18,.06,.32,.19,.43l.37,.32c.08,.07,.2,.11,.35,.11h1.14c.17,0,.32-.06,.46-.18l.3-.26c.12-.09,.18-.22,.18-.39v-1.99c0-.2-.06-.34-.18-.43l-.35-.28c-.12-.1-.25-.15-.41-.15h-1.02c-.22,0-.39,.05-.52,.16l-.33,.29c-.12,.1-.18,.23-.18,.4Z"/>
  <path class="cls-1" d="M37.11,14.09l-1.34,.87v3.15c0,.13-.05,.25-.15,.35s-.21,.15-.35,.15-.25-.05-.35-.15-.15-.21-.15-.35v-4.67c0-.14,.05-.25,.14-.35s.21-.15,.35-.15,.25,.05,.35,.15,.15,.22,.15,.35v.33l.9-.54c.3-.19,.64-.29,1.02-.29h.46c.39,0,.73,.14,1.02,.42s.44,.62,.45,1.03l.13,3.73c0,.13-.04,.25-.14,.35s-.21,.15-.35,.15c-.13,0-.24-.04-.34-.13s-.15-.21-.15-.36l-.15-3.67c-.01-.34-.19-.52-.54-.52h-.48c-.15,0-.31,.06-.48,.17Z"/>
  <path class="cls-1" d="M44.36,14.09l-1.34,.87v3.15c0,.13-.05,.25-.15,.35s-.21,.15-.35,.15-.25-.05-.35-.15-.15-.21-.15-.35v-4.67c0-.14,.05-.25,.14-.35s.21-.15,.35-.15,.25,.05,.35,.15,.15,.22,.15,.35v.33l.9-.54c.3-.19,.64-.29,1.02-.29h.46c.39,0,.73,.14,1.02,.42s.44,.62,.45,1.03l.13,3.73c0,.13-.04,.25-.14,.35s-.21,.15-.35,.15c-.13,0-.24-.04-.34-.13s-.15-.21-.15-.36l-.15-3.67c-.01-.34-.19-.52-.54-.52h-.48c-.15,0-.31,.06-.48,.17Z"/>
  <path class="cls-1" d="M54.23,14.8v1.19c0,.13-.05,.25-.15,.35s-.21,.15-.35,.15h-3.48v.29c0,.17,.07,.31,.22,.43l.29,.24c.16,.12,.3,.18,.45,.18h2.53c.13,0,.25,.05,.35,.14s.15,.21,.15,.35-.05,.25-.15,.35-.21,.15-.34,.15h-2.6c-.17,0-.35-.04-.54-.11s-.33-.15-.42-.23l-.44-.39c-.14-.11-.25-.26-.34-.46s-.14-.38-.14-.54v-2.26c0-.13,.05-.3,.15-.52s.23-.39,.38-.51l.41-.32c.27-.22,.57-.33,.9-.33h1.38c.35,0,.68,.14,.98,.43l.37,.35c.27,.24,.4,.59,.4,1.07Zm-3.96-.08v.76h2.99v-.69c0-.18-.06-.32-.17-.42l-.29-.25c-.15-.12-.28-.18-.4-.18h-1.24c-.15,0-.29,.05-.42,.16l-.29,.24c-.13,.1-.19,.22-.19,.38Z"/>
  <path class="cls-1" d="M61,18.6h-2.1c-.37,0-.69-.11-.95-.33l-.96-.83c-.3-.25-.46-.6-.46-1.03v-1.28c-.02-.42,.16-.78,.52-1.09l.86-.74c.28-.23,.57-.34,.89-.34h2.21c.14,0,.25,.05,.35,.14s.14,.21,.14,.35-.05,.26-.14,.35-.21,.14-.35,.14h-2.12c-.13,0-.26,.05-.38,.16l-.79,.67c-.13,.11-.19,.26-.19,.44v1.2c0,.13,.05,.24,.15,.33l.87,.74c.11,.1,.25,.15,.43,.15h2.02c.13,0,.25,.05,.35,.14s.15,.21,.15,.35-.05,.25-.14,.35-.21,.14-.35,.14Z"/>
  <path class="cls-1" d="M67.23,18.6h-.98c-.41,0-.76-.14-1.05-.43s-.44-.64-.44-1.04v-3.19h-.5c-.14,0-.25-.05-.35-.14s-.14-.21-.14-.35,.05-.25,.14-.35,.21-.14,.35-.14h.52v-1.21c0-.14,.05-.25,.14-.35s.21-.14,.35-.14c.13,0,.24,.05,.34,.15s.15,.21,.15,.35v1.21h1.98c.13,0,.25,.05,.35,.15s.15,.21,.15,.35-.05,.25-.15,.35-.21,.14-.35,.14h-1.99v3.19c0,.13,.05,.25,.15,.35s.22,.15,.35,.15h.96c.26,0,.44-.14,.52-.42s.25-.42,.5-.42c.14,0,.26,.05,.35,.14s.14,.22,.14,.36c0,.3-.14,.59-.42,.89s-.64,.44-1.07,.44Z"/>
  <path class="cls-1" d="M74.99,18.59h-3c-.14,0-.25-.05-.35-.14s-.14-.21-.14-.35,.05-.25,.14-.35,.21-.15,.35-.15h1.01v-3.67h-1c-.14,0-.25-.05-.35-.15s-.14-.21-.14-.35,.05-.25,.14-.35,.21-.15,.35-.15h1.5c.14,0,.25,.05,.35,.15s.14,.22,.14,.35v4.17h.98c.14,0,.25,.05,.35,.14s.15,.21,.15,.35-.05,.25-.15,.35-.21,.14-.35,.14Zm-2-8.21h.52c.14,0,.25,.05,.35,.14s.14,.21,.14,.35v.42c0,.14-.05,.25-.14,.35s-.21,.15-.35,.15h-.53c-.14,0-.26-.05-.35-.15s-.14-.21-.14-.34v-.43c.01-.14,.06-.25,.16-.35s.21-.14,.35-.14Z"/>
  <path class="cls-1" d="M80.51,13.93v4.18c0,.14-.05,.25-.15,.35s-.21,.14-.35,.14c-.14,0-.26-.05-.36-.14s-.15-.21-.15-.35v-4.18h-.5c-.14,0-.25-.05-.35-.15s-.14-.21-.14-.35,.04-.24,.13-.34,.21-.15,.36-.15h.52v-.38c0-.5,.17-.92,.52-1.25s.78-.5,1.29-.5h1.15c.14,0,.25,.05,.35,.15s.14,.22,.14,.36c0,.13-.05,.25-.15,.35s-.21,.15-.35,.15h-1.15c-.23,0-.43,.07-.58,.21s-.23,.32-.23,.54v.38h.98c.13,0,.25,.04,.35,.14s.15,.21,.15,.35-.05,.25-.15,.35-.21,.15-.35,.15h-1Z"/>
  <path class="cls-1" d="M90.48,14.39l-2.65,6c-.09,.21-.25,.32-.47,.32h-1.37c-.14,0-.25-.05-.35-.14s-.14-.21-.14-.35,.05-.25,.14-.35,.21-.14,.35-.14h1.05l.67-1.56h-.24c-.22,0-.38-.12-.48-.35l-1.48-3.43v-.95c0-.14,.05-.25,.14-.35s.21-.14,.34-.14,.25,.05,.35,.14,.15,.21,.15,.35v.73l1.29,3h.34l1.34-2.99v-.76c0-.13,.05-.24,.15-.34s.22-.15,.35-.15,.25,.05,.35,.15,.15,.21,.15,.35v.96Z"/>
</svg>